<?xml version="1.0" encoding="UTF-8"?>
<svg id="_Слой_1" data-name=" Слой 1" xmlns="http://www.w3.org/2000/svg" viewBox="0 0 841.89 595.28">
  <defs>
    <style>
      .cls-1 {
        fill: #1d9dd6;
      }
    </style>
  </defs>
  <g>
    <path class="cls-1" d="M77.01,279.58l71.29,86.83c.35.38.77.44,1.27.38.79-.11,11.16-7.19,13.42-8.43,6.33-3.49,13.31-7.5,19.99-10.21,2.93-1.19,7.46-2.96,12.24-4.19,5.19-1.33,10.68-2.02,14.73-.63,2.39.82,4.29,2.36,5.35,4.88,3.03,7.27-.4,12.94-.73,20.03l232.16-123.47c.2-3.87.82-9.66,2.95-16.26,5.34-16.59,15.84-25.04,49.74-50.1,0,0,45.82-33.88,68.46-37.28,10.9-1.64,18.65,2.28,18.65,2.28,2.12,1.07,3.68,2.24,4.6,2.99,24.27-12.89,44.7-24.05,60.3-32.67,21.24-11.74-1.19,3.23,43.06-25.96,12.81-8.45,37.09-22.94,40.78-38.49,1.47-6.19-1.44-10.68-6.05-13.3-1.93-1.1-4.16-1.88-6.48-2.3-20.57-3.75-37.99,9.44-57.06,14.81-.28-15.09,14.29-20.2,27.13-21.25-1.52-2.1-5.35-3.31-7.84-3.9-9.64-2.25-19.62-.57-29.49,3.18-10.24,4.8-20.55,10.57-30.31,16.36-.04.03-.08.06-.14.1-10.95,6.51-21.17,13.04-29.73,18.22-9.17,5.54-18.34,11.12-27.49,16.73-23.32,13.4-46.81,26.55-69.95,40.19-33.19,21.23-59.83,38.08-76.7,48.72-.93.59-2.47,1.56-4.54,2.87-22.19,14.05-84.86,62.32-146.29,97.49-17.14,9.81-29.63,16-45.26,21.19-18.04,5.99-37.01,11.93-59.74,8.17-20.59-3.41-42.68-14.65-49.02-17.87-14.75-7.5-26.18-15.46-33.54-10.89-3.98,2.47-5.28,7.67-5.75,11.77h-.01Z"/>
    <path class="cls-1" d="M487.67,202.11c-9.39,8.05-19.13,16.08-26.11,25.53l98.73,171.32c3.44,6.07,10.73,4.06,15.7-.41,15.87-14.29,11.61-40.33,11.53-57.56-.15-32.16-1.16-64.55-2.98-96.71-1.75-30.83-4.92-61.61-6.75-92.43-35.87,9.14-65.26,28.97-90.12,50.26h0Z"/>
    <path class="cls-1" d="M209.05,82.54c62.16,28.46,123.56,58.67,185.45,87.77l16.98-10.94,68.92-44.43,17.2-11.09c.5-2.25-.99-1.23-2.36-1.45-50.26-8.73-101.24-20.37-151.37-30.57-44.95-9.14-91.45-29.41-130.84,5.6-.98.88-4.81,3.9-3.98,5.12h0Z"/>
    <path class="cls-1" d="M158.08,434.15c.06.26,1.44,2.06,2,1.11,5.86-4.83,23.17-8.8,27.15-14.6,3.66-5.32,7.04-17.04,8.9-23.51,2.85-9.9,9.27-35.28,9.14-44.61-.02-1.52.42-1.85-1.4-1.5-10.67,2.03-34.48,15.23-41.99,23.18-3.77,3.99-1.79,3.65-1.89,6.51l-1.91,53.42h0Z"/>
  </g>
  <path class="cls-1" d="M116.52,356.18c-40.79,43.84-39.48,122.22,6.47,161.56,14.47,11.19,30.87,20.23,47.98,26.7,107,40.4,251.69,4.7,350.96-45.01,57.65-29.85,117.7-68.98,148.21-127.91,4.18-6.98,7.97-14.22,10.67-21.96,19.07-53.85-4.43-119.18-49.43-153.26,7.38,4.11,14.23,9.22,20.57,14.91,12.73,11.49,23.14,25.48,31.17,40.67,20.69,38.83,23.6,87.99,1.52,127.14-1.63,4.56-7.91,16.4-12.16,23.11-48.98,77.13-151.4,131.14-236.79,157.67-90.24,27.73-203.97,39.47-289.69-7.34-9.72-5.31-19.21-11.71-27.83-18.66l-5.23-4.44-1.3-1.11c-.43-.38-.83-.85-1.24-1.26l-2.46-2.59c-42.54-45.9-39.27-127.47,8.6-168.22h-.02Z"/>
</svg>